<?xml version="1.0" encoding="utf-8" ?><svg xmlns="http://www.w3.org/2000/svg" xmlns:xlink="http://www.w3.org/1999/xlink" width="425" height="294" viewBox="0 0 425 294"><path fill="#1F232F" d="M42.949 182.196C37.5847 174.835 38.4599 171.341 38.4812 162.637L38.5239 145.96L38.5316 123.625C38.5352 119.376 38.3776 113.7 38.9609 109.626C39.5598 105.443 42.8786 98.8875 46.3742 96.4302C48.6903 94.802 52.2224 93.5174 54.8389 92.1713C59.6665 89.6877 64.4786 87.2304 69.3745 84.8673L122.137 59.6447C136.883 52.5978 151.388 45.2863 166.26 38.4657C177.844 33.1529 189.029 26.3458 201.212 22.2939C218.616 16.1488 235.577 24.3025 250.878 32.1314C256.34 34.9261 262.336 37.5558 267.919 40.1632C282.141 46.6605 296.398 53.0821 310.688 59.4277L363.893 83.2283L382.344 91.5297C386.108 93.2157 390.235 94.9406 393.881 96.857C398.941 99.5159 403.699 105.96 404.521 111.595C405.155 115.943 404.992 120.701 404.985 125.071L404.987 142.603L405.008 160.467C405.046 170.603 406.358 179.62 397.443 186.566C383.33 194.42 368.823 201.846 354.565 209.461C341.612 216.379 328.614 223.755 315.598 230.497L270.275 253.977C265.154 256.613 259.721 259.13 254.692 261.783C254.02 262.155 253.368 262.537 252.664 262.844C251.763 263.226 250.277 263.789 249.526 264.336C246.323 265.543 244.02 266.448 240.65 267.188C233.445 268.616 231.656 268.058 225.116 268.529C222.157 268.214 219.746 267.615 216.84 267.057C215.314 266.598 214.118 266.091 212.653 265.485C202.935 261.414 191.944 255.687 182.316 250.975L134.225 227.677L76.4288 200.011C66.997 195.497 57.4439 191.014 48.0521 186.415C46.5032 185.657 44.1557 183.465 42.949 182.196Z"/><path fill="#FDFDFD" d="M212.745 29.3538C213.249 29.2918 213.959 29.2869 214.484 29.2764C218.909 29.2109 223.304 30.0203 227.415 31.6581C233.651 34.0836 243.379 39.0087 249.731 41.9787C262.637 47.9845 275.578 53.9166 288.552 59.7747L353.501 89.0249L374.407 98.5266C395.378 108.002 395.249 106.407 395.185 129.846L395.239 148.688C391.341 150.635 388.042 153.14 384.33 155.119C349.534 173.669 315.306 193.473 280.558 212.074L258.84 223.835C247.94 229.671 243.149 232.837 230.721 233.672C218.772 234.118 209.295 228.172 199.043 223.025L171.595 209.376C149.178 198.489 126.816 187.487 104.511 176.37L69.6802 158.598C62.7923 155.055 55.3378 151.022 48.3809 147.721C48.1002 142.702 48.3098 136.636 48.2116 131.464C48.2972 125.044 47.6786 118.491 48.5185 112.113C49.5779 104.068 56.0435 102.049 62.1483 99.0863L77.0998 91.8144L123.734 69.2228C142.984 59.8425 162.281 50.5619 181.627 41.3816C191.195 36.912 202.334 30.2473 212.745 29.3538Z"/><defs><linearGradient id="gradient_0" gradientUnits="userSpaceOnUse" x1="318.91595" y1="194.20686" x2="215.52808" y2="105.56683"><stop offset="0" stop-color="#696F7D"/><stop offset="1" stop-color="#9F9EA7"/></linearGradient></defs><path fill="url(#gradient_0)" d="M317.492 89.7056C320.316 91.0136 323.285 92.1477 326.152 93.4359C337.811 98.7731 349.531 103.977 361.309 109.045C366.366 111.266 371.388 113.564 376.374 115.938C378.81 117.081 382.488 118.713 384.625 120.072C388.055 122.253 387.996 130.882 386.531 134.261C385.853 135.828 383.56 136.795 382.168 137.701C369.038 145.078 355.708 152.074 342.451 159.214L289.719 188.005L258.847 204.824C254.298 207.295 245.227 212.494 240.564 214.091C232.537 216.84 222.586 215.74 214.999 211.837C199.435 203.831 183.587 195.79 167.781 188.262C164.782 186.833 157.514 182.731 155.205 181.943C155.264 179.53 155.101 174.387 156.064 172.555C156.609 172.072 156.672 172.061 157.354 171.774C160.241 170.806 166.046 167.737 168.932 166.276C175.202 163.101 181.439 159.688 187.728 156.54C215.665 142.329 243.421 127.766 270.99 112.855L292.366 101.545C296.817 99.1722 301.926 96.266 306.466 94.1921C310.605 91.9403 312.915 90.8142 317.492 89.7056Z"/><path fill="#585966" d="M317.492 89.7056C320.316 91.0136 323.285 92.1477 326.152 93.4359C337.811 98.7731 349.531 103.977 361.309 109.045C366.366 111.266 371.388 113.564 376.374 115.938C378.81 117.081 382.488 118.713 384.625 120.072C388.055 122.253 387.996 130.882 386.531 134.261C385.853 135.828 383.56 136.795 382.168 137.701C369.038 145.078 355.708 152.074 342.451 159.214L289.719 188.005L258.847 204.824C254.298 207.295 245.227 212.494 240.564 214.091C232.537 216.84 222.586 215.74 214.999 211.837C199.435 203.831 183.587 195.79 167.781 188.262C164.782 186.833 157.514 182.731 155.205 181.943C155.264 179.53 155.101 174.387 156.064 172.555C156.609 172.072 156.672 172.061 157.354 171.774C160.348 172.297 170.7 177.343 173.828 178.907C184.62 184.294 195.439 189.624 206.287 194.897C213.472 198.426 220.247 203.083 228.332 203.823C232.285 204.217 236.274 203.602 239.924 202.033C247.38 198.876 258.975 192.083 266.423 188.023L313.322 162.646L350.786 142.896C357.835 139.233 370.396 133.441 376.076 128.713C369.865 121.925 359.517 118.848 351.316 114.775L327.219 102.728C325.261 101.75 318.039 97.9754 316.344 97.4713L316.141 97.4121C313.415 96.6008 311.02 96.831 308.339 96.1943C307.196 95.923 306.972 95.1225 306.466 94.1921C310.605 91.9403 312.915 90.8142 317.492 89.7056Z"/><defs><linearGradient id="gradient_1" gradientUnits="userSpaceOnUse" x1="166.47055" y1="152.70026" x2="130.06155" y2="78.805779"><stop offset="0" stop-color="#7BB432"/><stop offset="1" stop-color="#ACDC4D"/></linearGradient></defs><path fill="url(#gradient_1)" d="M115.327 86.2014C122.382 82.9466 129.372 79.5535 136.293 76.024C143.465 72.3824 150.871 67.4907 158.551 65.1143C159.713 64.7546 165.296 66.5795 166.514 67.0755C175.501 70.4437 183.917 75.1633 192.688 79.0335C207.81 85.7427 222.863 92.6748 237.606 100.184C239.281 101.037 241.949 102.816 243.092 104.235C243.618 106.256 243.836 108.669 244.08 110.77C238.866 115.044 221.351 123.688 214.643 127.137L172.008 149.367L151.345 160.354C142.267 165.275 133.863 171.678 123.161 166.843C119.353 165.122 115.976 162.786 112.271 160.962L77.6289 144.024C72.7093 141.585 59.2533 135.46 55.9436 132.027C54.6442 128.262 54.721 123.138 55.596 119.283C56.0048 117.464 56.7865 116.502 58.3688 115.519C63.278 112.466 68.424 109.813 73.5915 107.229L92.0594 97.9994C98.6298 94.6851 108.731 88.8696 115.327 86.2014Z"/><path fill="#B1DD5C" d="M115.327 86.2014C114.422 87.6688 113.636 87.1856 112.914 88.3799C113.274 88.682 113.723 89.1335 114.153 89.2226L114.322 88.8044L114.516 89.088C112.147 100.698 92.7092 108.898 86.1354 118.119C83.5632 121.727 81.613 127.745 80.3358 132.014C81.9134 132.494 82.351 132.973 83.4828 134.185C82.4159 133.703 80.8514 133.059 79.9176 132.426C78.3338 131.333 73.021 128.787 71.0518 127.81C66.2111 125.41 62.5751 123.275 58.0315 120.396L58.3237 119.693L57.3095 117.364L57.0941 117.34C56.5809 118.047 56.1608 118.61 55.596 119.283C56.0048 117.464 56.7865 116.502 58.3688 115.519C63.278 112.466 68.424 109.813 73.5915 107.229L92.0594 97.9994C98.6298 94.6851 108.731 88.8696 115.327 86.2014Z"/><path fill="#579130" d="M212.677 39.8049C215.281 39.5232 218.912 39.7898 221.316 40.8182C226.206 42.9102 231.238 45.331 236.089 47.536L274.372 65.2614C279.79 67.6972 285.231 70.0833 290.693 72.4195C297.794 75.4963 298.79 74.2742 299.54 82.1228C293.221 86.1064 284.956 90.0819 278.312 93.6072C274.865 95.4364 268.935 98.8208 265.544 99.7916C258.909 98.5261 245.601 91.0587 238.658 87.8221C218.625 78.3241 198.485 69.0522 178.243 60.0081C178.245 57.9536 178.232 56.4851 178.488 54.4499C188.206 50.9481 203.079 41.6926 212.677 39.8049Z"/><defs><linearGradient id="gradient_2" gradientUnits="userSpaceOnUse" x1="323.9285" y1="221.05231" x2="329.44028" y2="233.04387"><stop offset="0" stop-color="#D0CECF" stop-opacity="0.53725493"/><stop offset="1" stop-color="#D2D1D1" stop-opacity="0.60784316"/></linearGradient></defs><path fill="#FDFDFD" fill-opacity="0.59215689" d="M396.8 191.648L397.29 191.988C397.706 192.746 397.619 193.028 397.528 193.863L396.95 193.844C396.535 192.947 396.723 192.774 396.8 191.648Z"/><defs><linearGradient id="gradient_3" gradientUnits="userSpaceOnUse" x1="249.98456" y1="248.86722" x2="262.20978" y2="268.78381"><stop offset="0" stop-color="#FEFEFD" stop-opacity="0.34117648"/><stop offset="1" stop-color="#FBFAFB" stop-opacity="0.63921571"/></linearGradient></defs></svg>