<?xml version="1.0" encoding="utf-8" ?><svg xmlns="http://www.w3.org/2000/svg" xmlns:xlink="http://www.w3.org/1999/xlink" width="664" height="201" viewBox="0 0 664 201"><path fill="#FFFFFF" d="M10.8918 38.6234C17.1809 39.1231 23.8648 38.6707 30.2502 38.9038C31.2383 43.9966 33.6426 50.9371 35.0286 56.2589C39.505 73.4472 44.9708 90.2997 49.4678 107.485C50.3923 100.941 55.6744 83.901 57.7698 77.1734C61.8608 64.4596 65.671 51.6571 69.1977 38.7754C74.1994 38.6497 84.9474 38.5652 89.8355 39.0047C91.5142 44.6387 93.9789 50.9947 95.8441 56.7196C101.144 73.4128 106.645 90.0415 112.347 106.602C112.882 100.338 116.634 87.9524 118.304 81.7164C122.069 67.6653 126.984 53.1476 130.387 39.0689C135.02 38.8896 144.714 38.7756 149.12 38.9373C148.219 43.2262 146.392 48.912 145.114 53.2517C143.855 58.0017 141.718 62.7908 140.42 67.5466C134.972 87.5047 128.021 106.829 122.679 126.827C115.053 126.882 107.426 126.861 99.8003 126.765C96.0775 110.095 90.2062 94.5321 85.3977 78.1711C83.7234 72.4744 80.4906 65.3275 79.7807 59.6528C74.0723 81.8894 65.4162 103.76 59.4846 126.707C52.4081 127.079 44.5724 126.884 37.4893 126.74C37.2208 124.51 36.3959 121.866 35.7672 119.698C28.8888 95.9778 21.1483 72.5153 13.827 48.9296C12.7573 45.4837 11.6133 42.1746 10.8918 38.6234Z"/><path fill="#4E7C34" d="M491.705 64.002C500.923 62.9226 513.89 66.8646 522.879 68.6053C523.43 82.5734 522.764 97.2661 522.969 111.219C522.678 125.775 525.188 143.142 509.944 151.23C495.368 158.964 479.881 157.111 464.64 153.064C464.319 149.409 464.562 143.926 464.68 140.157C466.523 140.59 468.648 140.983 470.521 141.371C478.938 143.357 492.654 145.429 500.445 140.37C507.047 136.083 503.805 129.084 504.9 122.906C499.744 125.403 495.176 127.798 489.373 128.294C482.466 128.894 474.506 127.505 469.104 122.794C456.373 111.555 454.583 88.3762 465.329 75.2672C472.051 67.0685 481.752 64.8772 491.705 64.002ZM492.245 115.327C497.033 115.131 502.373 112.831 505.095 108.767C505 103.418 504.036 98.2172 504.169 92.6834C504.231 90.1122 504.522 79.7439 503.848 78.1528C500.729 76.453 494.086 76.5955 490.571 76.9614C475.965 80.0124 475.447 91.6892 477.28 104.072C478.486 112.223 484.696 115.593 492.245 115.327Z"/><path fill="#FFFFFF" d="M176.467 64.3213C184.512 63.0026 195.48 64.8511 202.425 69.2856C221.88 81.7079 219.627 118.091 196.951 125.805C193.537 126.967 190.288 127.431 186.788 128.164L186.638 128.183C167.687 130.495 149.683 122.736 147.583 101.784C145.46 80.6127 154.543 66.6617 176.467 64.3213ZM184.212 116.34C188.379 115.238 192.338 113.978 194.517 109.904C198.02 103.352 198.591 94.7612 196.85 87.6237C194.708 78.8402 187.07 75.2993 178.514 76.2612C165.846 78.2928 164.677 87.7836 165.231 98.6095C165.532 104.493 166.71 110.063 171.816 113.776C175.454 116.376 179.811 116.951 184.212 116.34Z"/><path fill="#4E7C34" d="M383.674 37.4168C393.506 36.3219 403.811 38.9403 413.094 41.7085L413.35 57.0164C406.097 54.4691 398.294 51.5636 390.51 51.6031C386.063 51.5776 376.628 51.7504 373.759 55.9835C366.582 66.5684 379.802 72.5983 387.052 75.112C396.523 78.3954 404.657 81.3995 411.883 87.6932C416.05 91.5927 417.73 97.4907 417.725 103.006C417.706 125.556 396.132 128.858 378.917 128.991C369.32 128.944 362.446 126.479 353.434 123.59C353.213 118.233 353.294 112.853 353.325 107.491C364.185 112.555 370.325 115.542 383.299 115.257C392.31 115.06 405.727 109.11 397.038 97.9288C392.917 92.6257 378.701 89.7526 372.713 87.0318C368.467 85.1029 363.673 83.1316 360.099 79.8002C350.527 71.6991 349.721 57.4349 357.738 48.0336C363.789 41.199 374.623 37.9406 383.674 37.4168Z"/><path fill="#4E7C34" d="M537.065 36.0035C542.855 35.8344 549.005 36.2598 554.787 35.9347C554.852 48.0155 554.841 60.0966 554.751 72.1773C562.242 66.7785 565.953 64.2041 575.901 64.1652C582.376 64.1343 589.547 65.5653 594.243 70.3522C601.229 77.4723 599.719 91.5922 599.721 100.94C599.768 109.681 599.771 118.423 599.729 127.165C593.952 127.033 587.855 127.113 582.032 127.049C581.957 118.496 581.962 109.944 582.047 101.392C582.127 96.1935 582.519 89.9575 581.623 84.8211C581.134 82.0163 579.217 80.1492 577.305 78.1574C568.074 75.3781 560.12 78.0276 554.769 86.0202C554.112 98.8916 554.99 113.935 554.69 127.161C548.834 127.097 542.977 127.087 537.121 127.132C536.606 102.435 537.161 77.623 536.977 52.9177C536.935 47.3645 536.819 41.5258 537.065 36.0035Z"/><path fill="#FFFFFF" d="M278.048 36.2993L295.419 36.329L295.593 68.0615C295.63 75.3627 295.795 83.5602 295.324 90.8305C304.997 82.49 311.187 74.2189 319.617 65.5708C326.437 64.9728 333.044 65.5519 339.755 65.2336C335.473 70.188 331.035 74.6359 326.578 79.3953C321.984 84.3015 317.803 89.6028 312.822 94.1598C318.673 99.8374 326.536 108.937 332.226 115.15C336.036 119.105 339.178 123.32 343.305 127.052C337.907 127.503 326.048 127.244 320.551 127.049C312.36 116.689 304.043 107.293 295.363 97.3616C295.509 107.286 295.577 117.211 295.566 127.136C289.811 126.945 283.841 127.116 277.941 126.931C277.486 115.941 277.94 105.018 278.103 94.0467C278.333 78.5014 278.142 62.8961 278.21 47.3467C278.226 43.6991 278.265 39.9364 278.048 36.2993Z"/><path fill="#4E7C34" d="M631.258 47.764C632.067 47.5793 632.217 47.5191 633.004 47.7752C633.782 49.5773 633.56 62.136 633.587 65.0614C639.004 65.0738 646.194 65.3824 651.382 65.0959C651.455 69.1076 651.417 73.2213 651.427 77.2417C646.321 77.1575 638.383 77.7764 633.509 77.2128C633.613 83.5455 633.557 90.4633 633.497 96.7783C633.351 111.992 633.753 119.113 651.31 115.978C651.341 119.631 651.02 123.367 651.06 127.271C648.231 127.82 645.736 128.316 642.873 128.625C634.167 129.344 623.085 129.555 618.701 120.244C617.558 117.817 617.083 115.869 615.441 113.654C616.306 107.129 615.772 98.1545 615.766 91.5456C615.762 87.0014 616.024 82.1099 616.285 77.5562C613.289 77.6728 608.668 77.2514 605.218 77.2639C605.186 72.6178 605.109 69.9158 605.48 65.1891C608.97 65.0581 612.793 65.1579 616.31 65.1843C616.176 60.2472 616.158 55.3076 616.257 50.3697C620.978 49.8975 626.443 48.5805 631.258 47.764Z"/><path fill="#FFFFFF" d="M261.775 64.3261C263.432 64.0831 266.498 64.3253 268.132 64.5492C268.01 69.2038 267.96 73.86 267.984 78.5162C265.756 78.4159 263.525 78.369 261.295 78.3756C242.661 78.5306 243.35 90.4491 243.493 104.667L243.782 127.02C238.507 126.76 231.947 126.898 226.517 126.795C226.003 124.002 226.479 113.617 226.402 110.215C226.072 95.4683 226.794 79.8776 226.39 65.2299C232.223 65.3634 238.057 65.4537 243.892 65.501L243.766 73.4341L244.24 72.8618C249.387 66.7093 254.014 65.0216 261.775 64.3261Z"/><path fill="#4E7C34" d="M429.645 65.2054C435.319 65.0224 441.007 65.1672 446.689 65.0872C446.985 72.2344 446.642 80.4279 446.733 87.6834C446.898 100.822 446.909 113.962 446.488 127.096C440.876 127.007 434.994 127.144 429.332 127.126C429 119.552 429.276 110.405 429.28 102.671C429.287 90.3336 429.192 77.5109 429.645 65.2054Z"/><path fill="#4E7C34" d="M436.434 37.9881C448.973 36.6528 454.384 49.418 442.122 54.2568C428.951 56.0016 422.943 41.1347 436.434 37.9881Z"/></svg>